
            <svg width="385" height="48" viewBox="0 0 2056 256" fill="none" xmlns="http://www.w3.org/2000/svg" xmlns:xlink="http://www.w3.org/1999/xlink" version="1.1">
        
		<g transform="translate(0, 0)">
            
			<svg xmlns="http://www.w3.org/2000/svg" width="256" height="256" fill="none" viewBox="0 0 256 256"><rect width="256" height="256" fill="#F4F2ED" rx="60"/><path fill="#4E7896" d="M101.634 182.619C101.634 182.619 93.9548 187.293 106.979 188.63C122.707 190.634 131.023 190.299 148.386 186.962C148.386 186.962 153.06 189.971 159.406 192.306C120.331 209.002 70.9089 191.304 101.634 182.619ZM96.6252 160.914C96.6252 160.914 88.2753 167.26 101.299 168.593C118.327 170.262 131.69 170.597 154.732 165.926C154.732 165.926 157.741 169.267 162.747 170.936C115.664 184.961 62.8975 172.269 96.6252 160.917V160.914ZM188.795 198.984C188.795 198.984 194.471 203.658 182.449 207.334C160.073 214.012 88.6104 216.019 68.5735 207.334C61.564 204.325 74.9197 199.982 79.2587 199.319C83.6012 198.317 85.9366 198.317 85.9366 198.317C78.2569 192.973 34.8424 209.337 63.8959 214.046C143.709 227.073 209.499 208.37 188.792 199.018L188.795 198.984ZM105.307 138.203C105.307 138.203 68.9052 146.888 92.2793 149.89C102.298 151.223 122 150.892 140.368 149.555C155.396 148.221 170.458 145.548 170.458 145.548C170.458 145.548 165.113 147.886 161.441 150.222C124.342 159.915 53.2107 155.573 73.5827 145.554C90.9526 137.204 105.307 138.203 105.307 138.203V138.203ZM170.423 174.604C207.83 155.234 190.46 136.534 178.438 138.873C175.429 139.54 174.096 140.207 174.096 140.207C174.096 140.207 175.097 138.203 177.436 137.54C201.145 129.19 219.849 162.586 169.757 175.61C169.757 175.61 170.092 175.275 170.423 174.608V174.604ZM108.979 227.364C145.046 229.703 200.147 226.03 201.484 208.995C201.484 208.995 198.817 215.673 171.764 220.683C141.042 226.359 102.968 225.692 80.5957 222.016C80.5957 222.016 85.2698 226.023 108.982 227.36L108.979 227.364Z"/><path fill="#F58219" d="M147.685 28C147.685 28 168.389 49.0388 127.983 80.7594C95.5891 106.472 120.632 121.168 127.983 137.861C108.948 120.833 95.2609 105.802 104.606 91.7762C118.331 71.0828 156.062 61.0644 147.685 28ZM137 123.842C146.683 134.862 134.333 144.881 134.333 144.881C134.333 144.881 159.044 132.195 147.692 116.494C137.338 101.466 129.324 94.1184 172.738 69.0689C172.738 69.0689 104.277 86.0968 137.007 123.835L137 123.842Z"/></svg>
		</g>
		
		<g transform="translate(300, 0)">
            
			<svg xmlns="http://www.w3.org/2000/svg" width="256" height="256" fill="none" viewBox="0 0 256 256">
<rect width="256" height="256" fill="#00B4E0" rx="60"/>
<path fill="#fff" d="M40.5 113.234C40.1 113.234 40 113.034 40.2 112.734L42.3 110.034C42.5 109.734 43 109.534 43.4 109.534H79.1C79.5 109.534 79.6 109.834 79.4 110.134L77.7 112.734C77.5 113.034 77 113.334 76.7 113.334L40.5 113.234Z"/>
<path fill="#fff" d="M25.4 122.434C25 122.434 24.9 122.234 25.1 121.934L27.2 119.234C27.4 118.934 27.9 118.734 28.3 118.734H73.9C74.3 118.734 74.5 119.034 74.4 119.334L73.6 121.734C73.5 122.134 73.1 122.334 72.7 122.334L25.4 122.434Z"/>
<path fill="#fff" d="M49.6 131.634C49.2 131.634 49.1 131.334 49.3 131.034L50.7 128.534C50.9 128.234 51.3 127.934 51.7 127.934H71.7C72.1 127.934 72.3 128.234 72.3 128.634L72.1 131.034C72.1 131.434 71.7 131.734 71.4 131.734L49.6 131.634Z"/>
<path fill="#fff" d="M153.4 111.434C147.1 113.034 142.8 114.234 136.6 115.834C135.1 116.234 135 116.334 133.7 114.834C132.2 113.134 131.1 112.034 129 111.034C122.7 107.934 116.6 108.834 110.9 112.534C104.1 116.934 100.6 123.434 100.7 131.534C100.8 139.534 106.3 146.134 114.2 147.234C121 148.134 126.7 145.734 131.2 140.634C132.1 139.534 132.9 138.334 133.9 136.934C130.3 136.934 125.8 136.934 114.6 136.934C112.5 136.934 112 135.634 112.7 133.934C114 130.834 116.4 125.634 117.8 123.034C118.1 122.434 118.8 121.434 120.3 121.434C125.4 121.434 144.2 121.434 156.7 121.434C156.5 124.134 156.5 126.834 156.1 129.534C155 136.734 152.3 143.334 147.9 149.134C140.7 158.634 131.3 164.534 119.4 166.134C109.6 167.434 100.5 165.534 92.5 159.534C85.1 153.934 80.9 146.534 79.8 137.334C78.5 126.434 81.7 116.634 88.3 108.034C95.4 98.7343 104.8 92.8343 116.3 90.7343C125.7 89.0343 134.7 90.1343 142.8 95.6343C148.1 99.1343 151.9 103.934 154.4 109.734C155 110.634 154.6 111.134 153.4 111.434Z"/><path fill="#fff" d="M186.5 166.734C177.4 166.534 169.1 163.934 162.1 157.934C156.2 152.834 152.5 146.334 151.3 138.634C149.5 127.334 152.6 117.334 159.4 108.434C166.7 98.8343 175.5 93.8343 187.4 91.7343C197.6 89.9343 207.2 90.9343 215.9 96.8343C223.8 102.234 228.7 109.534 230 119.134C231.7 132.634 227.8 143.634 218.5 153.034C211.9 159.734 203.8 163.934 194.5 165.834C191.8 166.334 189.1 166.434 186.5 166.734ZM210.3 126.334C210.2 125.034 210.2 124.034 210 123.034C208.2 113.134 199.1 107.534 189.6 109.734C180.3 111.834 174.3 117.734 172.1 127.134C170.3 134.934 174.1 142.834 181.3 146.034C186.8 148.434 192.3 148.134 197.6 145.434C205.5 141.334 209.8 134.934 210.3 126.334Z"/>
</svg>

		</g>
		
		<g transform="translate(600, 0)">
            
			<svg width="256" height="256" viewBox="0 0 256 256" fill="none" xmlns="http://www.w3.org/2000/svg">
<rect width="256" height="256" rx="60" fill="#F4F2ED"/>
<path d="M218 218H38V38H218L128 128L218 218Z" fill="url(#paint0_linear_7_121)"/>
<defs>
<linearGradient id="paint0_linear_7_121" x1="218" y1="38" x2="38" y2="218" gradientUnits="userSpaceOnUse">
<stop offset="0.00343514" stop-color="#E44857"/>
<stop offset="0.4689" stop-color="#C711E1"/>
<stop offset="1" stop-color="#7F52FF"/>
</linearGradient>
</defs>
</svg>

		</g>
		
		<g transform="translate(900, 0)">
            
			<svg width="256" height="256" viewBox="0 0 256 256" fill="none" xmlns="http://www.w3.org/2000/svg">
<rect width="256" height="256" rx="60" fill="#F4F4ED"/>
<path d="M138.572 170.762C223.143 170.762 223.143 58 138.572 58" stroke="#0468FF" stroke-width="42.2857"/>
<path d="M138.571 86.1904L54 198.952" stroke="#1F34AB" stroke-width="42.2857"/>
<path d="M54 114.381L82.1905 170.762" stroke="#85AEFF" stroke-width="42.2857"/>
</svg>

		</g>
		
		<g transform="translate(1200, 0)">
            
			<svg width="256" height="256" viewBox="0 0 256 256" fill="none" xmlns="http://www.w3.org/2000/svg">
<path d="M196 0H60C26.8629 0 0 26.8629 0 60V196C0 229.137 26.8629 256 60 256H196C229.137 256 256 229.137 256 196V60C256 26.8629 229.137 0 196 0Z" fill="#A40000"/>
<path d="M48.6107 60.7558C46.2268 61.0505 44.3586 62.9538 44.3507 65.2574L44.5012 182.878C44.4915 183.045 44.4918 183.222 44.5018 183.39C44.4745 183.669 44.4748 183.907 44.5028 184.186C44.5026 184.214 44.5027 184.272 44.503 184.3C44.5286 184.413 44.5906 184.531 44.6253 184.641C44.6251 184.669 44.6251 184.67 44.6254 184.698C44.651 184.811 44.6521 184.929 44.6868 185.04C44.6865 185.068 44.6866 185.125 44.6869 185.153C44.742 185.267 44.8052 185.385 44.8702 185.495C44.8699 185.523 44.8699 185.523 44.8702 185.551C44.9547 185.667 45.0798 185.785 45.1754 185.892C45.1751 185.92 45.1751 185.921 45.1754 185.949C45.2305 186.063 45.2937 186.181 45.3587 186.29C45.3584 186.318 45.3585 186.376 45.3588 186.404C45.4746 186.493 45.6007 186.553 45.7248 186.631C45.7245 186.659 45.7246 186.717 45.7249 186.745C45.8114 186.832 45.8755 186.892 45.969 186.972C45.9986 187.001 46.0606 187.059 46.091 187.086C46.1774 187.173 46.2415 187.233 46.335 187.313C46.365 187.314 46.366 187.314 46.396 187.313C46.6188 187.501 46.8719 187.678 47.1279 187.824C47.1579 187.825 47.2198 187.824 47.2498 187.824C47.3672 187.885 47.4933 187.943 47.6156 187.994C47.6456 187.995 47.6466 187.995 47.6766 187.994C47.794 188.055 47.9201 188.113 48.0424 188.164C48.2204 188.202 48.4096 188.202 48.5909 188.221C48.8872 188.274 49.2034 188.331 49.5052 188.333L49.9927 188.332L95.0264 188.153C107.899 188.13 116.521 187.909 121.656 187.26C121.686 187.26 121.747 187.26 121.777 187.26C126.691 186.577 131.896 185.319 137.556 183.481C147.394 180.404 156.119 175.858 163.62 169.786C170.965 163.904 176.656 156.94 180.657 149.105C184.657 141.271 186.673 132.987 186.658 124.4C186.637 112.447 183.022 101.254 175.768 91.1841C168.514 81.1139 158.613 73.4021 146.427 68.2947C134.04 63.0415 117.888 60.6479 97.8493 60.6837L49.2201 60.7549C49.011 60.756 48.8127 60.7307 48.6107 60.7558ZM74.7845 84.9585L95.7474 84.9279C105.544 84.9105 112.514 85.2081 116.468 85.7511C120.475 86.3018 124.865 87.464 129.513 89.2601C134.12 91.016 138.136 93.1664 141.588 95.8433C141.587 95.8712 141.587 95.9291 141.588 95.9571C151.082 103.227 155.557 111.965 155.578 123.535C155.599 135.382 151.274 144.609 142.025 152.348C139.181 154.697 136.017 156.689 132.527 158.337C129.228 159.874 124.925 161.198 119.491 162.339C114.366 163.365 106.586 163.948 96.4579 163.966L74.8856 163.998L74.7845 84.9585Z" fill="#EEEEEC"/>
<path d="M222.212 101.896C222.213 106.019 221.328 110.101 219.608 113.911C217.888 117.72 215.366 121.181 212.187 124.097C209.007 127.013 205.233 129.326 201.078 130.904C196.924 132.482 192.472 133.294 187.975 133.294C183.478 133.294 179.026 132.482 174.871 130.904C170.717 129.326 166.942 127.013 163.763 124.097C160.584 121.181 158.062 117.72 156.342 113.911C154.622 110.101 153.737 106.019 153.737 101.896C153.737 97.7726 154.622 93.6899 156.342 89.8805C158.062 86.0712 160.584 82.6098 163.763 79.6942C166.942 76.7785 170.717 74.4657 174.871 72.8877C179.026 71.3097 183.478 70.4976 187.975 70.4976C192.472 70.4976 196.924 71.3097 201.078 72.8877C205.233 74.4657 209.007 76.7785 212.187 79.6942C215.366 82.6098 217.888 86.0712 219.608 89.8805C221.328 93.6899 222.213 97.7726 222.212 101.896Z" fill="#EEEEEC"/>
<path d="M237.99 67.3982C237.99 68.7229 237.706 70.0348 237.153 71.2588C236.6 72.4827 235.79 73.5949 234.768 74.5318C233.747 75.4686 232.534 76.2117 231.199 76.7188C229.864 77.2258 228.434 77.4867 226.989 77.4867C225.544 77.4867 224.113 77.2258 222.778 76.7188C221.444 76.2117 220.231 75.4686 219.209 74.5318C218.188 73.5949 217.377 72.4827 216.825 71.2588C216.272 70.0348 215.988 68.7229 215.988 67.3982C215.988 66.0734 216.272 64.7616 216.825 63.5376C217.377 62.3136 218.188 61.2014 219.209 60.2646C220.231 59.3277 221.444 58.5846 222.778 58.0776C224.113 57.5705 225.544 57.3096 226.989 57.3096C228.434 57.3096 229.864 57.5705 231.199 58.0776C232.534 58.5846 233.747 59.3277 234.768 60.2646C235.79 61.2014 236.6 62.3136 237.153 63.5376C237.706 64.7616 237.99 66.0734 237.99 67.3982Z" fill="#EEEEEC"/>
</svg>

		</g>
		
		<g transform="translate(1500, 0)">
            
			<svg width="256" height="256" viewBox="0 0 256 256" fill="none" xmlns="http://www.w3.org/2000/svg">
<rect width="256" height="256" rx="60" fill="#394AAB"/>
<path d="M134.001 33C169.144 33 199.828 52.0863 216.262 80.4561L216.102 80.183L174.753 103.991C166.607 90.1977 151.672 80.8892 134.54 80.6975L134.001 80.6945C107.875 80.6945 86.6945 101.874 86.6945 127.999C86.6945 136.543 88.9723 144.552 92.9335 151.469C101.088 165.704 116.416 175.306 134.001 175.306C151.693 175.306 167.109 165.582 175.222 151.195L175.025 151.54L216.311 175.458C200.057 203.588 169.794 222.615 135.059 222.994L134.001 223C98.746 223 67.9753 203.796 51.582 175.276C43.5791 161.353 39 145.212 39 127.999C39 75.5334 81.5323 33 134.001 33Z" fill="white"/>
</svg>

		</g>
		
		<g transform="translate(1800, 0)">
            
			<svg width="256" height="256" viewBox="0 0 256 256" fill="none" xmlns="http://www.w3.org/2000/svg">
<g clip-path="url(#clip0_261_4)">
<path d="M196 0H60C26.8629 0 0 26.8629 0 60V196C0 229.137 26.8629 256 60 256H196C229.137 256 256 229.137 256 196V60C256 26.8629 229.137 0 196 0Z" fill="#F4F2ED"/>
<g clip-path="url(#clip1_261_4)">
<path d="M103.559 45.2908C106.36 37.3549 116.771 35.5192 122.117 42.0185L150.136 76.0842C153.603 80.2994 158.734 82.7971 164.191 82.93L208.325 84.0038C216.752 84.2087 221.7 93.5255 217.166 100.608L193.378 137.766C191.923 140.037 190.976 142.595 190.599 145.266C190.223 147.936 190.427 150.657 191.198 153.241L203.795 195.5C206.196 203.551 198.863 211.155 190.702 209.034L147.98 197.933C145.369 197.254 142.642 197.146 139.985 197.614C137.328 198.083 134.803 199.117 132.582 200.648L96.2338 225.692C89.2899 230.475 79.7995 225.839 79.3007 217.451L76.686 173.433C76.3624 167.985 73.6819 162.949 69.3441 159.636L34.2812 132.856C27.5984 127.751 29.0622 117.304 36.9098 114.229L78.0151 98.1252C83.0982 96.1337 87.0651 92.0319 88.8811 86.8852L103.559 45.2908Z" fill="#FFAFF3"/>
<path d="M111.213 34.4401C106.234 35.3181 101.683 38.6241 99.7988 43.9635L85.1205 85.5579C83.6895 89.6131 80.5678 92.8418 76.5605 94.4118L35.4551 110.516C24.9072 114.648 22.868 129.157 31.8605 136.025L66.9234 162.805C68.6116 164.094 70.0021 165.731 70.9998 167.606C71.9976 169.481 72.5791 171.549 72.7047 173.669L75.3195 217.687C75.9903 228.98 89.1623 235.405 98.4962 228.976L98.4964 228.975L134.845 203.932L134.846 203.932C136.596 202.725 138.585 201.91 140.678 201.541C142.772 201.172 144.92 201.258 146.977 201.793L146.977 201.793L189.699 212.894C200.669 215.745 210.85 205.201 207.617 194.36L207.617 194.36L195.019 152.102L195.019 152.101C194.412 150.066 194.251 147.924 194.548 145.821C194.844 143.718 195.59 141.704 196.736 139.916L196.736 139.915L220.524 102.757L220.524 102.757C226.625 93.2271 219.747 80.291 208.422 80.0151L164.288 78.9413C159.985 78.8366 155.947 76.8704 153.216 73.5494L125.196 39.4827C121.599 35.11 116.192 33.56 111.212 34.4381M112.553 42.0406C114.815 41.6416 117.287 42.4234 119.036 44.55L147.055 78.6157C151.257 83.7251 157.481 86.7543 164.093 86.9154L208.227 87.9891C213.754 88.1236 216.773 93.8212 213.806 98.4561L190.018 135.615C186.451 141.185 185.485 148.041 187.374 154.379L199.972 196.638C201.541 201.9 197.056 206.563 191.705 205.173L191.704 205.173L148.982 194.072C142.58 192.408 135.764 193.61 130.317 197.363L93.9691 222.406C89.4148 225.543 83.6061 222.695 83.2799 217.214L80.6653 173.196C80.2731 166.592 77.0202 160.481 71.763 156.465L36.7001 129.685C32.3268 126.345 33.2157 119.958 38.3626 117.941L79.4679 101.837C85.6265 99.4243 90.439 94.4492 92.6405 88.2106L92.6405 88.2104L107.319 46.616C108.235 44.0195 110.289 42.4397 112.552 42.0408" fill="#151515"/>
<path d="M98.4264 146.482C102.687 145.731 105.532 141.667 104.781 137.407C104.03 133.146 99.9665 130.301 95.7057 131.052C91.4448 131.803 88.5998 135.866 89.3511 140.127C90.1024 144.388 94.1655 147.233 98.4264 146.482Z" fill="#151515"/>
<path d="M161.547 135.352C165.807 134.601 168.652 130.538 167.901 126.277C167.15 122.016 163.087 119.171 158.826 119.922C154.565 120.674 151.72 124.737 152.471 128.998C153.222 133.259 157.286 136.104 161.547 135.352Z" fill="#151515"/>
<path d="M123.498 144.735C123.009 144.924 122.563 145.207 122.183 145.568C121.804 145.929 121.5 146.362 121.288 146.84C121.075 147.319 120.96 147.835 120.947 148.359C120.934 148.883 121.025 149.404 121.214 149.892C121.706 151.166 122.444 152.331 123.386 153.319L123.386 153.32L123.386 153.32C124.328 154.308 125.456 155.102 126.705 155.654L126.706 155.654C127.954 156.207 129.298 156.508 130.662 156.541L130.664 156.542L130.665 156.542C132.029 156.574 133.387 156.337 134.66 155.846L134.66 155.845C135.934 155.354 137.098 154.616 138.087 153.674L138.087 153.674L138.088 153.673C139.075 152.731 139.868 151.604 140.421 150.356C140.974 149.107 141.276 147.761 141.308 146.394C141.333 145.337 140.936 144.313 140.206 143.548C139.476 142.782 138.472 142.339 137.414 142.314C136.891 142.301 136.37 142.392 135.881 142.581C135.393 142.77 134.947 143.054 134.568 143.415C134.189 143.777 133.885 144.21 133.673 144.689C133.461 145.168 133.346 145.684 133.334 146.207C133.326 146.524 133.256 146.835 133.128 147.124L133.127 147.126L133.127 147.128C132.998 147.418 132.814 147.681 132.584 147.9C132.354 148.119 132.084 148.29 131.787 148.404L131.786 148.405L131.785 148.405C131.489 148.519 131.173 148.575 130.855 148.567C130.537 148.559 130.225 148.489 129.934 148.361L129.933 148.36L129.931 148.359C129.641 148.231 129.38 148.047 129.161 147.817L129.161 147.817L129.16 147.817C128.941 147.587 128.769 147.316 128.655 147.019C128.466 146.531 128.183 146.084 127.822 145.705C127.461 145.325 127.028 145.021 126.549 144.809C126.071 144.597 125.555 144.481 125.031 144.468C124.507 144.456 123.986 144.546 123.498 144.735Z" fill="#151515"/>
</g>
</g>
<defs>
<clipPath id="clip0_261_4">
<rect width="256" height="256" fill="white"/>
</clipPath>
<clipPath id="clip1_261_4">
<rect width="199.411" height="190.936" fill="white" transform="translate(13 51.6274) rotate(-10)"/>
</clipPath>
</defs>
</svg>

		</g>
		</svg>