
            <svg width="498" height="48" viewBox="0 0 2656 256" fill="none" xmlns="http://www.w3.org/2000/svg" xmlns:xlink="http://www.w3.org/1999/xlink" version="1.1">
        
		<g transform="translate(0, 0)">
            
			<svg width="256" height="256" viewBox="0 0 256 256" fill="none" xmlns="http://www.w3.org/2000/svg">
<rect width="256" height="256" rx="60" fill="#F4F2ED"/>
<path d="M168.784 118.005L141.628 60.875C138.219 53.7196 131.007 49.156 123.091 49.156C119.201 49.1509 115.39 50.2562 112.107 52.3421C108.823 54.428 106.203 57.4078 104.555 60.9314L76.863 119.188C84.6382 129.471 98.3855 137.922 112.048 140.824L121.007 122.005C121.197 121.606 121.496 121.27 121.87 121.034C122.244 120.798 122.677 120.673 123.119 120.673C123.561 120.673 123.995 120.798 124.368 121.034C124.742 121.27 125.042 121.606 125.232 122.005L133.993 140.429M168.784 118.005C168.784 118.005 168.784 118.033 168.756 118.033C168.756 118.033 168.756 118.005 168.784 118.005ZM168.784 118.005C175.151 110.202 179.771 101.018 181.743 91.1585C183.968 80.0311 194.786 72.8476 205.913 75.0449C208.559 75.5734 211.074 76.6178 213.315 78.1187C215.557 79.6195 217.481 81.5473 218.977 83.7918C220.474 86.0364 221.513 88.5538 222.037 91.2002C222.56 93.8467 222.556 96.5702 222.027 99.2154C217.463 122.005 204.73 142.373 187.49 157.332L197.349 178.065C202.814 189.559 197.096 203.616 184.982 207.222L184.616 207.335C182.813 207.842 180.954 208.095 179.151 208.095C171.46 208.095 164.108 203.757 160.586 196.376L151.825 177.953L133.993 140.429M133.993 140.429H134.05M78.6941 121.414C78.5533 121.273 78.4406 121.104 78.2998 120.963L78.0462 120.653C77.9617 120.541 77.8772 120.456 77.7927 120.343L76.863 119.16L76.8349 119.132C74.8911 116.569 73.3135 113.892 72.2149 111.16C67.9611 100.624 55.9885 95.5532 45.4808 99.807C34.9732 104.061 29.9024 116.033 34.128 126.541L34.2689 126.907C39.1424 138.683 47.5655 149.528 58.1295 158.458L48.7768 178.122C44.016 188.15 47.5937 200.433 57.3971 205.644C59.8459 206.95 62.5341 207.746 65.2993 207.984C68.0644 208.222 70.849 207.896 73.4849 207.028C76.1207 206.159 78.5529 204.764 80.6346 202.929C82.7162 201.093 84.404 198.854 85.596 196.348L94.1317 178.403C103.203 181.305 112.555 182.911 121.795 182.911C132.05 182.911 142.163 181.136 151.797 177.896L133.965 140.373C129.965 141.331 125.88 141.838 121.795 141.838H121.401C118.33 141.81 115.175 141.443 112.02 140.767C104.583 139.19 97.1178 135.978 90.6104 131.696C90.4977 131.64 90.4132 131.555 90.3005 131.499C89.1455 130.71 88.0186 129.921 86.92 129.076C84.5818 127.302 82.4127 125.386 80.4689 123.358C80.4407 123.358 80.4407 123.33 80.4126 123.301C79.821 122.682 79.2294 122.062 78.6941 121.414ZM78.6941 121.414C78.7223 121.442 78.7505 121.47 78.7505 121.498L78.6941 121.414Z" stroke="white" stroke-width="16" stroke-linejoin="round"/>
<path fill-rule="evenodd" clip-rule="evenodd" d="M94.1317 178.403L112.02 140.767C98.3573 137.866 84.61 129.414 76.8349 119.132L58.1295 158.458C68.5245 167.276 81.0042 174.206 94.1317 178.403Z" fill="#1A007F"/>
<path fill-rule="evenodd" clip-rule="evenodd" d="M168.784 118.005C159.798 129.02 147.318 137.19 133.965 140.373L151.797 177.896C164.812 173.502 176.982 166.403 187.49 157.303L168.784 118.005Z" fill="#4E000A"/>
<path fill-rule="evenodd" clip-rule="evenodd" d="M58.1295 158.458L48.7768 178.122C44.016 188.122 47.5937 200.433 57.3971 205.644C67.7921 211.166 80.5816 206.856 85.596 196.348L94.1317 178.403C80.9506 174.154 68.7225 167.38 58.1295 158.458Z" fill="#1A007F"/>
<path fill-rule="evenodd" clip-rule="evenodd" d="M205.913 75.073C203.268 74.5434 200.544 74.5401 197.898 75.0633C195.252 75.5866 192.734 76.6261 190.49 78.1224C188.245 79.6188 186.317 81.5428 184.816 83.7844C183.316 86.026 182.271 88.5413 181.743 91.1867C179.771 101.046 175.151 110.23 168.784 118.033L187.461 157.36C204.702 142.401 217.435 122.034 221.999 99.2435C224.224 88.0879 217.012 77.2704 205.913 75.073Z" fill="#FF9396"/>
<path fill-rule="evenodd" clip-rule="evenodd" d="M133.965 140.373C129.965 141.331 125.88 141.838 121.795 141.838C118.612 141.838 115.316 141.471 112.02 140.767C98.3573 137.866 84.61 129.414 76.8349 119.132C74.8911 116.569 73.3135 113.892 72.2149 111.16C67.9611 100.652 55.9885 95.5813 45.4808 99.8069C34.9732 104.061 29.9024 116.033 34.128 126.541C38.9452 138.485 47.4528 149.444 58.1295 158.458C68.7123 167.379 80.9311 174.154 94.1035 178.403C103.146 181.305 112.527 182.911 121.767 182.911C132.021 182.911 142.135 181.136 151.769 177.896L133.965 140.373Z" fill="#002DC8"/>
<path fill-rule="evenodd" clip-rule="evenodd" d="M197.321 178.037L187.461 157.303L168.784 118.005L168.756 118.033C168.756 118.033 168.756 118.005 168.784 118.005L141.628 60.875C139.961 57.37 137.335 54.409 134.054 52.335C130.773 50.2609 126.972 49.1587 123.091 49.156C115.175 49.156 107.964 53.7196 104.555 60.875L76.863 119.132C84.6382 129.414 98.3855 137.866 112.048 140.767L121.007 121.949C121.852 120.174 124.387 120.174 125.232 121.949L133.993 140.373L151.825 177.896L160.586 196.32C162.252 199.832 164.882 202.798 168.169 204.873C171.455 206.947 175.264 208.046 179.151 208.039C180.982 208.039 182.813 207.785 184.616 207.278C196.983 203.87 202.843 189.643 197.321 178.037Z" fill="#FF536A"/>
</svg>

		</g>
		
		<g transform="translate(300, 0)">
            
			<svg width="256" height="256" viewBox="0 0 256 256" fill="none" xmlns="http://www.w3.org/2000/svg">
<g clip-path="url(#clip0_33_732)">
<path d="M196 0H60C26.8629 0 0 26.8629 0 60V196C0 229.137 26.8629 256 60 256H196C229.137 256 256 229.137 256 196V60C256 26.8629 229.137 0 196 0Z" fill="#F4F2ED"/>
<path fill-rule="evenodd" clip-rule="evenodd" d="M191.072 195.009C187.802 200.396 184.532 204.435 180.588 208.185C176.164 212.129 174.914 215.591 164.718 216.939C157.505 218.286 151.253 215.591 148.848 214.534C141.634 211.167 137.882 210.11 133.555 210.11C129.323 210.11 125.764 211.168 118.646 214.438C116.434 215.591 110.471 218.189 103.161 216.843C95.6587 215.496 91.8113 212.611 89.022 210.206C83.251 205.109 78.9228 200.299 74.9792 194.721L191.072 195.009Z" fill="#00A0E2"/>
<path fill-rule="evenodd" clip-rule="evenodd" d="M58.7255 105.27C62.0919 97.6719 66.5163 92.5741 70.9407 89.0154C82.1942 79.7818 100.565 79.2047 109.029 81.4169C115.955 83.1482 120.86 87.3802 128.651 87.3802C136.826 87.3802 141.538 83.2444 147.984 81.4169C156.448 79.3009 174.915 79.9741 186.938 89.2077C190.497 91.9009 193.765 95.5558 195.593 97.5757C191.266 100.75 188.668 103.058 186.552 105.27H58.7255Z" fill="#34BE2D"/>
<path fill-rule="evenodd" clip-rule="evenodd" d="M186.553 105.27C184.533 107.482 183.091 109.599 181.455 112.58C179.533 116.043 177.223 120.756 176.646 127.873H53.0508C53.147 126.719 53.2431 125.469 53.4355 124.218C54.5897 116.62 56.4172 110.368 58.7256 105.27H186.553Z" fill="#FFB400"/>
<path fill-rule="evenodd" clip-rule="evenodd" d="M176.646 127.873C176.55 130.052 176.55 132.235 176.646 134.414C176.935 139.704 178.762 145.571 181.167 150.284L55.4553 149.995C53.724 142.397 52.7622 134.606 53.0507 127.873H176.646Z" fill="#FF7A00"/>
<path fill-rule="evenodd" clip-rule="evenodd" d="M181.166 150.284C182.15 152.325 183.342 154.259 184.724 156.055C192.996 166.635 196.555 166.635 202.999 169.906C202.52 171.058 202.135 172.118 201.653 173.08L62.7653 172.791C60.0721 166.924 57.2828 158.652 55.4553 149.996L181.166 150.284Z" fill="#F41E34"/>
<path fill-rule="evenodd" clip-rule="evenodd" d="M201.653 173.08C197.614 182.506 194.343 189.429 191.072 195.009L74.9805 194.721C71.1332 189.046 67.6706 182.793 63.7271 175.002C63.4385 174.329 63.0538 173.559 62.7653 172.791L201.653 173.08Z" fill="#A2359C"/>
<path fill-rule="evenodd" clip-rule="evenodd" d="M161.352 52.658C160.678 57.4672 158.274 63.6229 154.427 67.5664C150.289 71.9909 143.846 76.8 139.998 79.2046C137.882 80.5512 132.399 80.7435 127.88 81.2245C127.303 77.1848 127.207 73.7222 128.457 69.971C130.092 65.5466 132.21 59.1985 135.575 54.7741C139.71 49.2916 144.423 45.5405 147.02 44.1939C150.484 42.4626 156.255 39.8656 161.256 39C161.449 43.4244 162.123 48.426 161.352 52.658Z" fill="#34BE2D"/>
</g>
<defs>
<clipPath id="clip0_33_732">
<rect width="256" height="256" fill="white"/>
</clipPath>
</defs>
</svg>

		</g>
		
		<g transform="translate(600, 0)">
            
			<svg width="256" height="256" viewBox="0 0 256 256" fill="none" xmlns="http://www.w3.org/2000/svg">
<rect width="256" height="256" rx="60" fill="#F4F2ED"/>
<path d="M80.6882 60.9287L143.192 95.9039L163.227 61.2512L80.6882 60.9287ZM100.505 158.199L82.3577 193.734H163.701L184.248 158.199H100.505Z" fill="#00AA88"/>
<path d="M80.6882 60.9287L143.192 95.9039H100.258L82.3672 126.828L100.505 158.199L82.3577 193.724L43.1233 125.88L80.6882 60.9287Z" fill="#00CCFF"/>
<path d="M43.1233 125.88L82.3672 126.828L83.4581 128.716L44.347 127.929L43.1233 125.88Z" fill="url(#paint0_linear_105_2)"/>
<path d="M143.192 95.9039L80.6882 60.9287L75.9452 69.4852L123.319 95.7142L143.192 95.9039Z" fill="url(#paint1_linear_105_2)"/>
<path d="M99.9449 95.5814L163.606 59.6956L143.031 93.4375L99.9449 95.5814Z" fill="url(#paint2_linear_105_2)"/>
<path d="M100.258 95.9039L163.227 61.2512L143.192 95.9039H100.258ZM43.1233 125.88L100.258 95.9039L82.3672 126.828L43.1233 125.88Z" fill="#00AA88"/>
<path d="M43.1233 125.88L100.258 95.9039L96.3971 89.8802L47.1549 118.367L43.1233 125.88Z" fill="url(#paint3_linear_105_2)"/>
<path d="M100.258 95.9039L80.6882 60.9287L82.3672 126.847L100.258 95.9039Z" fill="#00AA88"/>
<path d="M100.505 158.199L163.701 193.734L184.248 158.199H100.505Z" fill="#00CCFF"/>
<path d="M80.6882 60.9287L75.9357 69.4757L76.391 126.553L82.3672 126.838L80.6882 60.9287Z" fill="url(#paint4_linear_105_2)"/>
<path d="M82.3672 126.838L52.3912 141.826L82.3672 193.734V126.838Z" fill="#00AA88"/>
<path d="M82.3672 126.838V193.724L89.7094 179.429L90.2786 140.213L82.3672 126.838Z" fill="url(#paint5_linear_105_2)"/>
<path d="M82.3672 193.724L79.5309 188.649L97.7442 153.551L100.495 158.199L82.3672 193.724Z" fill="url(#paint6_linear_105_2)"/>
<path d="M52.4007 141.835L82.3672 126.838L76.391 126.553L50.3991 138.952L52.4007 141.835Z" fill="url(#paint7_linear_105_2)"/>
<path d="M52.4007 141.835L100.495 158.199L82.3672 126.838L52.4007 141.835Z" fill="#00AA88"/>
<path d="M100.505 158.199L52.4102 141.835L57.6275 150.847L97.156 165.171L100.505 158.199Z" fill="url(#paint8_linear_105_2)"/>
<path d="M100.505 158.199L163.701 193.734L171.28 180.264L130.604 157.848L100.505 158.199Z" fill="url(#paint9_linear_105_2)"/>
<path d="M199.42 157.443C206.882 157.443 212.93 151.405 212.93 143.958C212.93 136.51 206.882 130.472 199.42 130.472C191.959 130.472 185.91 136.51 185.91 143.958C185.91 151.405 191.959 157.443 199.42 157.443Z" fill="#00CCFF"/>
<path d="M199.602 157.303C207.063 157.303 213.112 151.266 213.112 143.818C213.112 136.371 207.063 130.333 199.602 130.333C192.14 130.333 186.092 136.371 186.092 143.818C186.092 151.266 192.14 157.303 199.602 157.303Z" fill="url(#paint10_linear_105_2)"/>
<path d="M170.971 122.735C176.635 122.735 181.227 118.151 181.227 112.497C181.227 106.843 176.635 102.259 170.971 102.259C165.306 102.259 160.714 106.843 160.714 112.497C160.714 118.151 165.306 122.735 170.971 122.735Z" fill="#00CCFF"/>
<path d="M171.111 122.629C176.776 122.629 181.368 118.045 181.368 112.391C181.368 106.737 176.776 102.153 171.111 102.153C165.447 102.153 160.854 106.737 160.854 112.391C160.854 118.045 165.447 122.629 171.111 122.629Z" fill="url(#paint11_linear_105_2)"/>
<path d="M185.09 82.2808C188.007 82.2808 190.372 79.9204 190.372 77.0087C190.372 74.097 188.007 71.7366 185.09 71.7366C182.173 71.7366 179.808 74.097 179.808 77.0087C179.808 79.9204 182.173 82.2808 185.09 82.2808Z" fill="#00CCFF"/>
<path d="M185.16 82.2265C188.077 82.2265 190.442 79.8661 190.442 76.9544C190.442 74.0427 188.077 71.6823 185.16 71.6823C182.243 71.6823 179.878 74.0427 179.878 76.9544C179.878 79.8661 182.243 82.2265 185.16 82.2265Z" fill="url(#paint12_linear_105_2)"/>
<path d="M100.258 95.9039L80.6882 60.9287L85.6684 60.8623L104.071 93.5513L100.258 95.9039Z" fill="url(#paint13_linear_105_2)"/>
<linearGradient id="paint0_linear_105_2" x1="62.2057" y1="124.62" x2="62.155" y2="127.96" gradientUnits="userSpaceOnUse">
<stop stop-color="#001313"/>
<stop offset="1" stop-color="#001313" stop-opacity="0"/>
</linearGradient>
<linearGradient id="paint1_linear_105_2" x1="112.934" y1="63.0334" x2="103.009" y2="81.7713" gradientUnits="userSpaceOnUse">
<stop stop-color="#020202"/>
<stop offset="1" stop-color="#020202" stop-opacity="0"/>
</linearGradient>
<linearGradient id="paint2_linear_105_2" x1="129.623" y1="85.4059" x2="126.682" y2="79.991" gradientUnits="userSpaceOnUse">
<stop stop-color="#020202"/>
<stop offset="1" stop-color="#020202" stop-opacity="0"/>
</linearGradient>
<linearGradient id="paint3_linear_105_2" x1="69.5305" y1="126.135" x2="61.6981" y2="111.782" gradientUnits="userSpaceOnUse">
<stop stop-color="#020202"/>
<stop offset="1" stop-color="#020202" stop-opacity="0"/>
</linearGradient>
<linearGradient id="paint4_linear_105_2" x1="89.6201" y1="93.389" x2="78.4938" y2="93.309" gradientUnits="userSpaceOnUse">
<stop stop-color="#020202"/>
<stop offset="1" stop-color="#020202" stop-opacity="0"/>
</linearGradient>
<linearGradient id="paint5_linear_105_2" x1="74.1598" y1="160.713" x2="86.2439" y2="160.633" gradientUnits="userSpaceOnUse">
<stop stop-color="#020202"/>
<stop offset="1" stop-color="#020202" stop-opacity="0"/>
</linearGradient>
<linearGradient id="paint6_linear_105_2" x1="94.8687" y1="182.044" x2="88.4068" y2="178.779" gradientUnits="userSpaceOnUse">
<stop stop-color="#001313"/>
<stop offset="1" stop-color="#001313" stop-opacity="0"/>
</linearGradient>
<linearGradient id="paint7_linear_105_2" x1="66.266" y1="139.122" x2="63.9101" y2="134.497" gradientUnits="userSpaceOnUse">
<stop stop-color="#020202"/>
<stop offset="1" stop-color="#020202" stop-opacity="0"/>
</linearGradient>
<linearGradient id="paint8_linear_105_2" x1="77.4322" y1="130.995" x2="70.7814" y2="152.673" gradientUnits="userSpaceOnUse">
<stop stop-color="#020202"/>
<stop offset="1" stop-color="#020202" stop-opacity="0"/>
</linearGradient>
<linearGradient id="paint9_linear_105_2" x1="123.622" y1="180.95" x2="129.592" y2="170.663" gradientUnits="userSpaceOnUse">
<stop stop-color="#020202"/>
<stop offset="1" stop-color="#020202" stop-opacity="0"/>
</linearGradient>
<linearGradient id="paint10_linear_105_2" x1="200.805" y1="126.821" x2="199.395" y2="148.493" gradientUnits="userSpaceOnUse">
<stop stop-color="#008066" stop-opacity="0"/>
<stop offset="1" stop-color="#00FFCC"/>
</linearGradient>
<linearGradient id="paint11_linear_105_2" x1="172.027" y1="99.4879" x2="170.957" y2="115.941" gradientUnits="userSpaceOnUse">
<stop stop-color="#008066" stop-opacity="0"/>
<stop offset="1" stop-color="#00FFCC"/>
</linearGradient>
<linearGradient id="paint12_linear_105_2" x1="185.636" y1="70.319" x2="185.085" y2="78.7913" gradientUnits="userSpaceOnUse">
<stop stop-color="#008066" stop-opacity="0"/>
<stop offset="1" stop-color="#00FFCC"/>
</linearGradient>
<linearGradient id="paint13_linear_105_2" x1="87.1835" y1="83.4844" x2="92.7662" y2="80.2801" gradientUnits="userSpaceOnUse">
<stop stop-color="#001313"/>
<stop offset="1" stop-color="#001313" stop-opacity="0"/>
</linearGradient>
</svg>
		</g>
		
		<g transform="translate(900, 0)">
            
			<svg width="256" height="256" viewBox="0 0 256 256" fill="none" xmlns="http://www.w3.org/2000/svg">
<g clip-path="url(#clip0_33_901)">
<path d="M196 0H60C26.8629 0 0 26.8629 0 60V196C0 229.137 26.8629 256 60 256H196C229.137 256 256 229.137 256 196V60C256 26.8629 229.137 0 196 0Z" fill="#F4F2ED"/>
<g clip-path="url(#clip1_33_901)">
<path d="M127.5 215C175.825 215 215 175.825 215 127.5C215 79.1751 175.825 40 127.5 40C79.1751 40 40 79.1751 40 127.5C40 175.825 79.1751 215 127.5 215Z" fill="white"/>
<path d="M127.5 201.328C168.274 201.328 201.328 168.274 201.328 127.5C201.328 86.7259 168.274 53.6719 127.5 53.6719C86.7259 53.6719 53.6719 86.7259 53.6719 127.5C53.6719 168.274 86.7259 201.328 127.5 201.328Z" fill="#69B53F"/>
<path d="M79.6484 83.0664V144.59C79.7168 159.697 91.8848 171.865 106.992 171.934H148.008C163.115 171.865 175.283 159.697 175.352 144.59V110.41C175.283 99.1309 166.123 89.9707 154.844 89.9023C149.785 89.9023 144.932 91.8164 141.172 95.3027C137.412 91.8848 132.559 89.9707 127.5 89.9023C116.221 89.9707 107.061 99.1309 106.992 110.41V144.59H120.664V110.41C120.664 106.65 123.74 103.574 127.5 103.574C131.26 103.574 134.336 106.65 134.336 110.41V144.59H148.008V110.41C148.008 106.65 151.084 103.574 154.844 103.574C158.604 103.574 161.68 106.65 161.68 110.41V144.59C161.748 152.109 155.664 158.193 148.213 158.262C148.145 158.262 148.076 158.262 148.008 158.262H106.992C99.4727 158.33 93.3887 152.246 93.3203 144.795C93.3203 144.727 93.3203 144.658 93.3203 144.59V83.0664H79.6484Z" fill="#F8F8F8"/>
</g>
</g>
<defs>
<clipPath id="clip0_33_901">
<rect width="256" height="256" fill="white"/>
</clipPath>
<clipPath id="clip1_33_901">
<rect width="175" height="175" fill="white" transform="translate(40 40)"/>
</clipPath>
</defs>
</svg>

		</g>
		
		<g transform="translate(1200, 0)">
            
			<svg width="256" height="256" viewBox="0 0 256 256" fill="none" xmlns="http://www.w3.org/2000/svg">
<rect width="256" height="256" rx="60" fill="#F4F2ED"/>
<path opacity="0.3" d="M129.879 78.674C129.752 78.6751 129.626 78.6971 129.512 78.7384C129.397 78.7797 129.297 78.8394 129.216 78.9131C129.135 78.9868 129.077 79.0729 129.046 79.1651C129.014 79.2574 129.008 79.3534 129.032 79.4468L167.555 223.841C186.193 215.815 201.949 202.307 212.727 185.114L130.641 78.9943C130.563 78.8956 130.452 78.8142 130.318 78.758C130.184 78.7017 130.033 78.6727 129.879 78.674Z" fill="#2185D0"/>
<path d="M128 32C72.7705 32 28 76.7706 28 131.998C28 150.785 33.2909 169.192 43.2703 185.11L126.645 77.323C127.244 76.5444 128.752 76.5444 129.35 77.323L212.725 185.114C222.705 169.195 228 150.786 228 131.998C228 76.7706 183.229 32 128 32Z" fill="#2185D0"/>
</svg>

		</g>
		
		<g transform="translate(1500, 0)">
            
			<svg width="256" height="256" viewBox="0 0 256 256" fill="none" xmlns="http://www.w3.org/2000/svg">
<rect width="256" height="256" rx="60" fill="#F4F2ED"/>
<path d="M128.001 30C72.7791 30 28 74.7708 28 130.001C28 174.184 56.6533 211.668 96.3867 224.891C101.384 225.817 103.219 222.722 103.219 220.081C103.219 217.696 103.126 209.819 103.083 201.463C75.2631 207.512 69.3927 189.664 69.3927 189.664C64.8437 178.105 58.2894 175.032 58.2894 175.032C49.2163 168.825 58.9733 168.953 58.9733 168.953C69.0151 169.658 74.3026 179.258 74.3026 179.258C83.2217 194.546 97.6965 190.126 103.403 187.571C104.301 181.107 106.892 176.696 109.752 174.199C87.5405 171.67 64.1913 163.095 64.1913 124.778C64.1913 113.86 68.0977 104.939 74.4947 97.9362C73.4564 95.4175 70.0335 85.2465 75.4635 71.4722C75.4635 71.4722 83.8609 68.7845 102.971 81.7226C110.948 79.5069 119.502 78.3958 128.001 78.3577C136.499 78.3958 145.061 79.5069 153.052 81.7226C172.139 68.7845 180.525 71.4722 180.525 71.4722C185.968 85.2465 182.544 95.4175 181.505 97.9362C187.917 104.939 191.797 113.86 191.797 124.778C191.797 163.187 168.403 171.644 146.135 174.119C149.722 177.223 152.918 183.308 152.918 192.638C152.918 206.018 152.802 216.787 152.802 220.081C152.802 222.742 154.602 225.86 159.671 224.878C199.383 211.64 228 174.169 228 130.001C228 74.7708 183.227 30 128.001 30ZM65.4536 172.453C65.2333 172.95 64.4517 173.099 63.7396 172.758C63.0143 172.432 62.6069 171.754 62.8421 171.256C63.0574 170.744 63.8406 170.602 64.5643 170.945C65.2913 171.271 65.7053 171.955 65.4536 172.453ZM70.3725 176.842C69.8956 177.285 68.9633 177.079 68.3307 176.38C67.6766 175.683 67.554 174.751 68.0376 174.302C68.5294 173.86 69.4336 174.067 70.0893 174.764C70.7434 175.47 70.8709 176.395 70.3725 176.842ZM73.7471 182.458C73.1344 182.884 72.1325 182.485 71.5132 181.595C70.9004 180.706 70.9004 179.64 71.5264 179.212C72.1474 178.785 73.1344 179.169 73.762 180.052C74.373 180.956 74.373 182.023 73.7471 182.458ZM79.4542 188.962C78.9061 189.566 77.7386 189.404 76.8841 188.579C76.0098 187.773 75.7663 186.629 76.3161 186.024C76.8709 185.418 78.045 185.589 78.9061 186.407C79.7738 187.211 80.0387 188.364 79.4542 188.962ZM86.8301 191.157C86.5883 191.941 85.4639 192.297 84.3312 191.964C83.2002 191.621 82.46 190.704 82.6885 189.912C82.9237 189.124 84.053 188.753 85.194 189.109C86.3234 189.45 87.0652 190.361 86.8301 191.157ZM95.2242 192.089C95.2523 192.913 94.2919 193.597 93.1029 193.612C91.9073 193.639 90.9402 192.971 90.9269 192.16C90.9269 191.327 91.8659 190.65 93.0615 190.63C94.2505 190.607 95.2242 191.269 95.2242 192.089ZM103.47 191.773C103.613 192.577 102.787 193.404 101.606 193.624C100.445 193.836 99.3702 193.339 99.2229 192.541C99.0788 191.716 99.92 190.89 101.079 190.676C102.262 190.471 103.32 190.955 103.47 191.773Z" fill="#161614"/>
</svg>

		</g>
		
		<g transform="translate(1800, 0)">
            
			<svg width="256" height="256" viewBox="0 0 256 256" fill="none" xmlns="http://www.w3.org/2000/svg">
<path d="M196 0H60C26.8629 0 0 26.8629 0 60V196C0 229.137 26.8629 256 60 256H196C229.137 256 256 229.137 256 196V60C256 26.8629 229.137 0 196 0Z" fill="#F4F2ED"/>
<path d="M45.3359 129.9C45.3359 132.39 45.693 134.061 46.4072 134.913C47.1214 135.764 48.42 136.19 50.3029 136.19C52.2508 136.19 54.7505 135.207 57.8022 133.242L59.7501 136.485C54.0363 141.268 49.329 143.659 45.6281 143.659C41.9272 143.659 39.0054 142.775 36.8627 141.006C34.7201 139.171 33.6488 135.961 33.6488 131.375V105.626H28.7791L28 101.99L33.6488 100.221V95.4052L45.3359 90V100.81L56.8283 99.926L55.7569 106.314L45.3359 105.921V129.9Z" fill="#00AFC6"/>
<path d="M66.6452 166.067H64.9894C63.4311 163.38 62.23 159.547 61.3858 154.568L63.6258 153.192C65.5089 154.372 67.1645 154.961 68.5929 154.961C71.6445 154.961 73.9821 153.553 75.6052 150.735L78.9166 142.971L64.0155 107.886C63.2364 106.117 62.5546 105.004 61.9702 104.545C61.3858 104.086 60.2821 103.759 58.6588 103.562L57.9771 99.926C63.1713 100.45 66.9047 100.712 69.1773 100.712C71.4498 100.712 75.5078 100.45 81.3513 99.926L80.9619 103.366C80.832 103.431 80.4749 103.53 79.8905 103.661C79.3711 103.792 78.9166 103.923 78.5269 104.054C78.2023 104.119 77.8129 104.217 77.3584 104.348C76.4494 104.742 75.9949 105.233 75.9949 105.823C75.9949 106.281 76.1247 106.969 76.3843 107.886L84.9548 129.999L93.3307 107.493C93.5254 106.904 93.623 106.347 93.623 105.823C93.623 104.643 91.9023 103.857 88.461 103.464L88.2663 100.024C91.4478 100.483 94.1098 100.712 96.2524 100.712C98.3951 100.712 101.934 100.483 106.868 100.024L106.186 103.661C104.628 103.726 103.525 104.021 102.875 104.545C102.291 105.004 101.674 105.986 101.025 107.493L80.5722 155.747C77.6505 162.627 73.008 166.067 66.6452 166.067Z" fill="#00AFC6"/>
<path d="M136.081 138.647C138.613 138.647 140.756 137.238 142.509 134.421C144.327 131.538 145.236 127.345 145.236 121.842C145.236 111.621 142.281 106.511 136.373 106.511C133.971 106.511 131.341 107.854 128.484 110.54V133.144C129.198 134.716 130.27 136.026 131.698 137.075C133.127 138.123 134.588 138.647 136.081 138.647ZM136.276 166.951C130.237 166.361 126.147 166.067 124.004 166.067C121.861 166.067 117.576 166.361 111.148 166.951L110.174 163.413C112.512 162.889 114.2 162.299 115.239 161.644C116.278 160.989 116.797 159.973 116.797 158.597V109.557C116.797 107.33 115.953 106.216 114.265 106.216L109.785 106.805L109.298 103.071C114.882 100.581 120.173 99.1071 125.173 98.6484L127.218 100.909C127.218 102.35 127.543 103.988 128.192 105.823L132.477 102.58C135.464 100.286 138.159 99.1398 140.561 99.1398C146.469 99.1398 150.82 100.942 153.611 104.545C156.403 108.149 157.799 113.325 157.799 120.073C157.799 126.756 155.689 132.357 151.469 136.878C147.248 141.399 141.827 143.659 135.204 143.659C133.062 143.659 130.822 142.939 128.484 141.497V158.794C128.484 160.039 129.004 161.022 130.042 161.742C131.536 162.398 133.484 162.922 135.886 163.315L136.957 163.511L136.276 166.951Z" fill="#00AFC6"/>
<path d="M175.986 138.942C177.544 138.942 178.843 138.45 179.882 137.468C180.921 136.485 181.44 135.273 181.44 133.831C181.44 132.324 181.245 131.211 180.856 130.49C180.466 129.704 179.817 128.983 178.908 128.328C177.609 127.28 175.759 126.166 173.357 124.987C171.019 123.807 169.169 122.792 167.805 121.94C166.507 121.088 165.208 119.712 163.909 117.812C162.676 115.847 162.059 113.586 162.059 111.031C162.059 107.362 163.487 104.479 166.344 102.383C169.266 100.221 172.87 99.1396 177.155 99.1396C181.44 99.1396 186.31 99.8931 191.764 101.4C191.569 105.659 191.017 109.262 190.108 112.211L186.212 113.095C184.654 106.805 181.7 103.66 177.35 103.66C174.428 103.66 172.967 105.397 172.967 108.869C172.967 110.245 173.519 111.424 174.623 112.407C175.791 113.39 177.479 114.438 179.687 115.552C181.895 116.6 183.485 117.419 184.459 118.009C185.433 118.533 186.732 119.418 188.355 120.662C191.342 123.021 192.835 126.33 192.835 130.588C192.835 134.847 191.212 138.09 187.965 140.318C184.719 142.545 180.434 143.659 175.11 143.659C169.85 143.659 165.24 142.775 161.28 141.006C161.15 139.892 161.085 137.959 161.085 135.207C161.085 132.39 161.15 130.424 161.28 129.311L166.052 128.23C166.572 131.44 167.708 134.028 169.461 135.993C171.214 137.959 173.389 138.942 175.986 138.942Z" fill="#00AFC6"/>
<path d="M213.586 129.9C213.586 132.39 213.943 134.061 214.657 134.913C215.372 135.764 216.67 136.19 218.553 136.19C220.501 136.19 223.001 135.207 226.052 133.242L228 136.485C222.286 141.268 217.579 143.659 213.878 143.659C210.177 143.659 207.255 142.775 205.113 141.006C202.97 139.171 201.899 135.961 201.899 131.375V105.626H197.029L196.25 101.99L201.899 100.221V95.4052L213.586 90V100.81L225.078 99.926L224.007 106.314L213.586 105.921V129.9Z" fill="#00AFC6"/>
</svg>

		</g>
		
		<g transform="translate(2100, 0)">
            
			<svg xmlns="http://www.w3.org/2000/svg" width="256" height="256" fill="none" viewBox="0 0 256 256"><rect width="256" height="256" fill="#F4F2ED" rx="60"/><path fill="url(#paint0_linear_159_780)" d="M78.5714 184L30.2856 145.714L54.2856 101.143L123.143 128L78.5714 184Z"/><path fill="url(#paint1_linear_159_780)" d="M228 81.4285L224.286 197.143L147.429 228L101.143 198.286L168.857 128L139.143 63.1428L165.714 31.1428L228 81.4285Z"/><path fill="url(#paint2_linear_159_780)" d="M228 81.4285L167.143 153.429L139.143 63.1428L165.714 31.1428L228 81.4285Z"/><path fill="url(#paint3_linear_159_780)" d="M124.286 194L44 223.143L56.8571 178L73.7143 122.571L28 107.143L56.8571 28L119.714 35.7143L181.429 106.286L124.286 194Z"/><path fill="#000" d="M190.571 66.5715H67.1428V190H190.571V66.5715Z"/><path fill="#fff" d="M124.857 166.857H78.5713V174.571H124.857V166.857Z"/><path fill="#fff" d="M112 92.0001V82.5715H86.2856V92.0001H93.7142V124.286H86.2856V133.714H112V124.286H104.857V92.0001H112Z"/><path fill="#fff" d="M136.571 134.572C132.571 134.572 129.143 133.714 126.571 132.286C124 130.857 121.714 128.857 120 126.857L127.143 118.857C128.571 120.572 130 121.714 131.429 122.572C132.857 123.429 134.571 124 136.286 124C138.286 124 140 123.429 141.429 122C142.571 120.572 143.143 118.572 143.143 115.429V82.5715H154.571V116C154.571 119.143 154.286 121.714 153.429 124C152.571 126.286 151.429 128 149.714 129.714C148.286 131.143 146.286 132.572 144 133.143C141.714 134 139.429 134.572 136.571 134.572Z"/><defs><linearGradient id="paint0_linear_159_780" x1="30.256" x2="123.192" y1="142.541" y2="142.541" gradientUnits="userSpaceOnUse"><stop offset=".258" stop-color="#F97A12"/><stop offset=".459" stop-color="#B07B58"/><stop offset=".724" stop-color="#577BAE"/><stop offset=".91" stop-color="#1E7CE5"/><stop offset="1" stop-color="#087CFA"/></linearGradient><linearGradient id="paint1_linear_159_780" x1="101.621" x2="254.926" y1="99.086" y2="183.914" gradientUnits="userSpaceOnUse"><stop stop-color="#F97A12"/><stop offset=".072" stop-color="#CB7A3E"/><stop offset=".154" stop-color="#9E7B6A"/><stop offset=".242" stop-color="#757B91"/><stop offset=".334" stop-color="#537BB1"/><stop offset=".432" stop-color="#387CCC"/><stop offset=".538" stop-color="#237CE0"/><stop offset=".655" stop-color="#147CEF"/><stop offset=".792" stop-color="#0B7CF7"/><stop offset="1" stop-color="#087CFA"/></linearGradient><linearGradient id="paint2_linear_159_780" x1="208.651" x2="165.972" y1="150.615" y2="23.088" gradientUnits="userSpaceOnUse"><stop stop-color="#FE315D"/><stop offset=".078" stop-color="#CB417E"/><stop offset=".16" stop-color="#9E4E9B"/><stop offset=".247" stop-color="#755BB4"/><stop offset=".339" stop-color="#5365CA"/><stop offset=".436" stop-color="#386DDB"/><stop offset=".541" stop-color="#2374E9"/><stop offset=".658" stop-color="#1478F3"/><stop offset=".794" stop-color="#0B7BF8"/><stop offset="1" stop-color="#087CFA"/></linearGradient><linearGradient id="paint3_linear_159_780" x1="58.63" x2="186.639" y1="75.066" y2="286.8" gradientUnits="userSpaceOnUse"><stop stop-color="#FE315D"/><stop offset=".04" stop-color="#F63462"/><stop offset=".104" stop-color="#DF3A71"/><stop offset=".167" stop-color="#C24383"/><stop offset=".291" stop-color="#AD4A91"/><stop offset=".55" stop-color="#755BB4"/><stop offset=".917" stop-color="#1D76ED"/><stop offset="1" stop-color="#087CFA"/></linearGradient></defs></svg>
		</g>
		
		<g transform="translate(2400, 0)">
            
			<svg width="256" height="256" viewBox="0 0 256 256" fill="none" xmlns="http://www.w3.org/2000/svg">
<g clip-path="url(#clip0_165_719)">
<path d="M196 0H60C26.8629 0 0 26.8629 0 60V196C0 229.137 26.8629 256 60 256H196C229.137 256 256 229.137 256 196V60C256 26.8629 229.137 0 196 0Z" fill="#F4F2ED"/>
<path fill-rule="evenodd" clip-rule="evenodd" d="M56.4062 51.9375C53.3862 51.9375 50.9377 54.3859 50.9377 57.4062V177.719H40V57.4062C40 48.3453 47.3454 41 56.4062 41H202.93C210.238 41 213.898 49.8359 208.73 55.0036L118.486 145.248H143.907V133.969H154.844V147.982C154.844 152.513 151.171 156.185 146.641 156.185H107.548L88.7495 174.984H173.984V106.625H184.922V174.984C184.922 181.025 180.025 185.922 173.984 185.922H77.8124L58.6716 205.062H198.594C201.614 205.062 204.062 202.614 204.062 199.594V79.2812H215V199.594C215 208.655 207.655 216 198.594 216H52.0704C44.7617 216 41.1018 207.164 46.2698 201.996L136.172 112.094H111.094V123.031H100.156V109.359C100.156 104.829 103.829 101.156 108.359 101.156H147.11L166.251 82.0156H81.0156V150.375H70.0785V82.0156C70.0785 75.975 74.9755 71.0781 81.0156 71.0781H177.188L196.328 51.9375H56.4062Z" fill="#242938"/>
</g>
<defs>
<clipPath id="clip0_165_719">
<rect width="256" height="256" fill="white"/>
</clipPath>
</defs>
</svg>

		</g>
		</svg>